<?xml version="1.0" encoding="utf-8"?>
<!-- Generator: Adobe Illustrator 23.0.1, SVG Export Plug-In . SVG Version: 6.00 Build 0)  -->
<svg version="1.1" id="Layer_1" xmlns="http://www.w3.org/2000/svg" xmlns:xlink="http://www.w3.org/1999/xlink" x="0px" y="0px"
	 viewBox="0 0 1383.44 1061.49" style="enable-background:new 0 0 1383.44 1061.49;" xml:space="preserve">
<style type="text/css">
	.st0{fill:#FFFFFF;}
</style>
<g>
	<path class="st0" d="M1248.3,155.49L1248.3,155.49h-17.98l27.85-68.64l30.22-76.36H809.76v235h291.6l-327.68,816h246.27
		l333.31-829.45l30.18-76.55H1248.3z M895.76,155.49v-55h262.19l-22.09,55H895.76z M963.84,966.49l-57.77,0l289.38-721h57.76
		L963.84,966.49z"/>
	<path class="st0" d="M245.49,814.12l0-0.02c4.41-40.97,29.53-80.65,70.71-111.71c25.85-19.36,55.45-33.81,87.96-42.97l186.98-52.67
		c61.25-17.29,115.58-48.68,157.12-90.78c42.79-43.37,68.47-94.75,74.26-148.59c4.97-46.1-5.31-91.32-29.72-130.75
		c-23.2-37.48-58.44-68.77-102.03-90.59c-32.59-47.49-65.78-79.82-104.3-101.62C542.26,19.41,488.66,7.25,422.62,7.25
		c-56.31,0-106.44,9.88-149.01,29.36c-39.43,18.05-72.77,44.47-99.1,78.55c-46.28,59.91-70.74,143.26-70.74,241.05v8.28h227.7
		l0.9-7.49c5.97-49.81,32.45-90.02,76.58-116.26c59.39-35.32,144.91-41.28,214.23-15.23c2.92,12.83,3.69,25.98,2.26,39.15
		c-4.43,41.2-29.56,80.91-70.81,111.84c-25.41,19.35-54.95,33.87-87.78,43.16l-187.31,52.7c-62.57,17.66-123.07,55.23-170.36,105.79
		C60.04,630.7,29.33,693.51,22.7,755.03L5.65,913.49h139.73l-15.36,148h535.29l95.52-238l-516.36,0L245.49,814.12z M407.71,141.13
		c-62.53,22.15-115.4,63.98-140.68,126.62l-5.79,15.74h-64.78C221.13,156.01,295.94,94,424.88,94c42.89,0,82.42,10.82,117.91,32.23
		C495.12,121.72,448.17,126.8,407.71,141.13z M154.99,823.49H99.32l4.67-37.71c11.7-86.49,70.11-167.08,156.25-215.58
		c39.96-22.49,92.97-35.89,149.1-50.08c129.84-32.81,276.4-69.86,304.01-235.3c16.2,24.64,23.11,52.1,20.06,80.42
		c-4.45,41.21-29.58,80.92-70.83,111.84c-25.4,19.33-54.94,33.86-87.77,43.16l-187.33,52.7c-61.26,17.29-115.59,48.69-157.12,90.82
		c-42.74,43.36-68.4,94.71-74.19,148.5L154.99,823.49z M631.39,913.49l-21.47,54H229.33l5.85-54H631.39z"/>
</g>
</svg>
