<svg id="SvgjsSvg1001" width="288" height="288" xmlns="http://www.w3.org/2000/svg" version="1.1" xmlns:xlink="http://www.w3.org/1999/xlink" xmlns:svgjs="http://svgjs.com/svgjs"><defs id="SvgjsDefs1002"></defs><g id="SvgjsG1008"><svg xmlns="http://www.w3.org/2000/svg" enable-background="new 0 0 339.64 387.77" viewBox="0 0 339.64 387.77" width="288" height="288"><path d="M332.93,93.92c-7.58-4.28-14.99-8.85-22.48-13.29C265.09,53.75,219.72,26.88,174.36,0c-1.52,0-3.03,0-4.55,0
		c-9.59,5.33-19.19,10.62-28.76,15.99C97.16,40.62,53.28,65.29,9.36,89.88c-4.29,2.4-7.06,5.34-7.12,10.62
		C1.56,160.73,0.82,220.97,0,281.21c-0.07,5.11,1.86,8.6,6.2,11.19c51.86,31.04,103.69,62.13,155.49,93.26
		c4.46,2.68,8.52,2.83,13.12,0.24c52.33-29.45,104.71-58.81,157.11-88.14c4.3-2.4,6.28-5.72,6.31-10.7
		c0.39-60.49,0.84-120.99,1.39-181.48C339.69,100.15,337.6,96.56,332.93,93.92z M160.13,358.84c0,0.87,0,1.74,0,3.34
		c-1.74-0.97-2.83-1.53-3.89-2.16c-44.59-26.73-89.16-53.48-133.76-80.19c-2.02-1.21-3.45-2.23-3.4-5.14
		c0.8-51.65,1.44-103.3,2.12-154.96c0.01-0.74,0.09-1.48,0.17-2.64c1.21,0.62,2.21,1.06,3.14,1.6
		c44.23,26.1,88.44,52.22,132.7,78.27c2.08,1.22,2.99,2.47,2.99,5C160.11,254.26,160.13,306.55,160.13,358.84z M173.05,180.58
		c-2.27,1.28-3.88,1.3-6.15-0.04c-44.28-26.22-88.62-52.35-132.95-78.5c-0.94-0.55-1.82-1.2-3.09-2.03c1.5-0.91,2.62-1.63,3.79-2.29
		c44.64-25.08,89.3-50.13,133.91-75.28c2.39-1.35,4.06-1.39,6.45,0.03c44.11,26.27,88.27,52.44,132.43,78.64
		c1.06,0.63,2.09,1.34,3.49,2.24c-4.27,2.4-8.19,4.61-12.11,6.8C256.89,133.61,214.94,157.05,173.05,180.58z M320.28,124.49
		c-0.39,51.52-0.79,103.03-1.13,154.55c-0.02,2.4-0.28,4.06-2.79,5.46c-44.61,24.89-89.13,49.92-133.68,74.91
		c-0.85,0.48-1.73,0.9-3.26,1.69c0-1.9,0-3.21,0-4.53c0-51.27,0.01-102.53-0.02-153.79c0-2.37,0.16-4.12,2.7-5.53
		c45.19-25.14,90.3-50.41,135.44-75.64c0.66-0.37,1.34-0.69,2.76-1.41C320.28,122.06,320.29,123.28,320.28,124.49z" fill="#ffffff" class="color000 svgShape"></path><path d="M105.64 219.81c-5.17-.07-9.2 3.95-9.33 9.3-.13 5.2 3.87 9.44 9.06 9.61 5.36.17 9.56-3.84 9.79-9.35C115.37 224.15 111.12 219.89 105.64 219.81zM137.71 201.82c-5.07-.17-9.33 4.25-9.4 9.74-.06 4.84 4.13 9.01 9.16 9.13 5.56.13 9.52-3.68 9.67-9.29C147.29 205.99 143.37 202.01 137.71 201.82zM73.8 237.93c-5.48-.13-9.37 3.74-9.47 9.44-.09 5.16 4.02 9.38 9.21 9.46 5.26.08 9.37-4.04 9.58-9.6C83.31 242.22 79.14 238.06 73.8 237.93zM41.58 255.9c-5.16-.14-9.04 3.71-9.32 9.26-.26 5.05 3.85 9.39 9.06 9.58 5.37.19 9.45-3.75 9.67-9.35C51.2 259.98 47.31 256.05 41.58 255.9zM296.72 258.83c-5.54-.12-10 3.92-10.03 9.11-.04 5.4 4.1 9.83 9.33 9.98 5.1.15 9.49-4.11 9.53-9.24C305.6 263.19 301.78 258.94 296.72 258.83zM232.88 221.36c-5.37.11-9.34 4.08-9.3 9.32.04 5.54 4.07 9.63 9.45 9.62 5.12-.02 9.43-4.31 9.39-9.36C242.37 225.44 238.2 221.25 232.88 221.36zM201.66 202.57c-5.5.02-9.83 4.18-9.74 9.39.09 5.5 4.2 9.58 9.6 9.54 5.24-.04 9.3-4.15 9.25-9.38C210.73 206.77 206.72 202.56 201.66 202.57zM264.77 240.19c-5.48-.01-9.66 3.86-9.67 8.94-.01 5.66 4.24 10.08 9.6 10 4.99-.08 9.2-4.23 9.25-9.11C274.01 244.31 270.16 240.19 264.77 240.19zM171.04 73.49c-4.99.01-9.43 4.39-9.5 9.38-.06 5.07 4.52 9.66 9.64 9.65 5.05-.01 9.35-4.29 9.41-9.38C180.66 77.9 176.27 73.48 171.04 73.49zM171.61 36.75c-5.25.02-9.56 4.44-9.47 9.72.09 5.03 4.49 9.4 9.48 9.42 5.06.01 9.63-4.69 9.54-9.81C181.07 41.06 176.63 36.73 171.61 36.75zM171.02 110.32c-5.29-.15-9.71 4.11-9.76 9.4-.05 5.23 4.4 9.77 9.53 9.71 4.85-.06 9.46-4.64 9.52-9.48C180.38 115.01 175.98 110.45 171.02 110.32zM170.49 147.03c-5.07-.13-9.58 4.05-9.77 9.04-.19 5.22 4.08 9.82 9.27 9.96 5.09.14 9.55-4 9.73-9.04C179.92 151.76 175.67 147.17 170.49 147.03z" fill="#ffffff" class="color000 svgShape"></path></svg></g></svg>