<?xml version="1.0" encoding="utf-8"?>
<!-- Generator: Adobe Illustrator 23.0.1, SVG Export Plug-In . SVG Version: 6.00 Build 0)  -->
<svg version="1.1" id="Layer_1" xmlns="http://www.w3.org/2000/svg" xmlns:xlink="http://www.w3.org/1999/xlink" x="0px" y="0px"
	 viewBox="0 0 636 212" style="enable-background:new 0 0 636 212;" xml:space="preserve">
<style type="text/css">
	.st0{fill:#FFFFFF;}
</style>
<g>
	<polygon class="st0" points="296.39,56.41 270.43,130.41 244.45,56.41 223.24,56.41 260.03,155.95 279.96,155.95 316.89,56.41 	"/>
	<path class="st0" d="M362.25,54.29c-26.95,0-51.11,19.8-51.11,51.95c0,32.01,24.15,51.81,51.11,51.81
		c27.09,0,51.24-19.8,51.24-51.81C413.49,74.09,389.34,54.29,362.25,54.29z M362.25,139.25c-15.3,0-31.03-10.67-31.03-33.13
		c0-22.46,15.72-33.13,31.03-33.13c15.44,0,31.17,10.67,31.17,33.13C393.41,128.58,377.7,139.25,362.25,139.25z"/>
	<polygon class="st0" points="495.79,56.4 473.18,56.4 451.42,90.8 430.07,56.4 406.76,56.4 439.33,106.11 406.62,155.95 
		429.36,155.95 450.99,121.55 472.47,155.95 495.93,155.95 463.21,106.25 	"/>
	<polygon class="st0" points="500.57,155.95 562.91,155.95 562.91,137.7 519.95,137.7 519.95,114.68 558.84,114.68 558.84,97.4 
		519.95,97.4 519.95,74.66 562.91,74.66 562.91,56.41 500.57,56.41 	"/>
	<polygon class="st0" points="592.54,137.42 592.54,56.41 573.16,56.41 573.16,155.95 621.89,155.95 627.02,137.42 	"/>
</g>
<path class="st0" d="M9.24,56.23v99.88l86.5,49.94l86.5-49.94V56.23L95.74,6.29L9.24,56.23z M20.94,62.99l68.94-39.81v28.84
	L45.92,77.41v50.77L20.94,142.6V62.99z M164.68,152.74l-68.94,39.81l-68.94-39.81l24.98-14.42l43.97,25.38l43.97-25.38
	L164.68,152.74z M133.85,128.18l-32.26,18.63v-37.25l32.26-18.63V128.18z M95.74,99.42L63.48,80.79l32.26-18.63L128,80.79
	L95.74,99.42z"/>
</svg>
